<svg xmlns="http://www.w3.org/2000/svg" viewBox="0 0 280 220">
<defs>
  <radialGradient id="pbg" cx="50%" cy="40%" r="70%">
    <stop offset="0%" stop-color="#FFF0F8"/>
    <stop offset="100%" stop-color="#FFF8EF"/>
  </radialGradient>
</defs>
<rect width="280" height="220" rx="16" fill="url(#pbg)"/>
  <path d="M100,195 Q100,205 140,207 Q180,205 180,195 L168,130 L112,130 Z" fill="#FFF8EF" stroke="#EDD4B0" stroke-width="1.5"/>
  <ellipse cx="140" cy="130" rx="30" ry="9" fill="#EDD4B0" stroke="#A0714D" stroke-width="1"/>
  <circle cx="118" cy="118" r="20" fill="#C0392B" stroke="#96281B" stroke-width="1.5"/>
  <circle cx="140" cy="112" r="20" fill="#FFC107" stroke="#D48C0F" stroke-width="1.5"/>
  <circle cx="162" cy="118" r="20" fill="#2AA87A" stroke="#1E8A63" stroke-width="1.5"/>
  <ellipse cx="140" cy="98" rx="16" ry="11" fill="#fff" stroke="#EDD4B0" stroke-width="1"/>
  <circle cx="140" cy="89" r="9" fill="#fff"/>
  <circle cx="140" cy="80" r="5" fill="#C0392B" stroke="#96281B" stroke-width="0.5"/>
  <rect x="130" y="106" width="5" height="2" rx="1" fill="#E8486A" transform="rotate(-20 132 107)"/>
  <rect x="145" y="103" width="5" height="2" rx="1" fill="#2AA87A" transform="rotate(15 147 104)"/>
  <rect x="135" y="120" width="5" height="2" rx="1" fill="#D48C0F" transform="rotate(-10 137 121)"/>
  <text x="140" y="215" text-anchor="middle" font-size="11" fill="#6B3820" font-family="sans-serif">Rainbow Sundae</text>
</svg>